<svg xmlns="http://www.w3.org/2000/svg" xmlns:xlink="http://www.w3.org/1999/xlink" width="500" zoomAndPan="magnify" viewBox="0 0 375 374.999991" height="500" preserveAspectRatio="xMidYMid meet" version="1.0"><defs><g/><clipPath id="0aed959cb0"><path d="M 160 37.5 L 215 37.5 L 215 111 L 160 111 Z M 160 37.5 " clip-rule="nonzero"/></clipPath><clipPath id="81ffd22e96"><path d="M 114.738281 83 L 188 83 L 188 138 L 114.738281 138 Z M 114.738281 83 " clip-rule="nonzero"/></clipPath><clipPath id="607f991119"><path d="M 187 83 L 260.238281 83 L 260.238281 138 L 187 138 Z M 187 83 " clip-rule="nonzero"/></clipPath></defs><path fill="#a6a6a6" d="M 203.335938 182.925781 L 171.601562 182.925781 C 165.476562 182.925781 160.464844 177.914062 160.464844 171.789062 L 160.464844 156.386719 L 167.890625 156.386719 L 167.890625 171.789062 C 167.890625 173.832031 169.558594 175.503906 171.601562 175.503906 L 203.335938 175.503906 C 205.378906 175.503906 207.046875 173.832031 207.046875 171.789062 L 207.046875 110.25 L 214.472656 110.25 L 214.472656 171.789062 C 214.472656 177.914062 209.496094 182.925781 203.335938 182.925781 Z M 203.335938 182.925781 " fill-opacity="1" fill-rule="nonzero"/><g clip-path="url(#0aed959cb0)"><path fill="#00b2bd" d="M 167.890625 110.25 L 160.464844 110.25 L 160.464844 48.710938 C 160.464844 42.585938 165.476562 37.574219 171.601562 37.574219 L 203.335938 37.574219 C 209.460938 37.574219 214.472656 42.585938 214.472656 48.710938 L 214.472656 64.113281 L 207.046875 64.113281 L 207.046875 48.710938 C 207.046875 46.667969 205.378906 44.996094 203.335938 44.996094 L 171.601562 44.996094 C 169.558594 44.996094 167.890625 46.667969 167.890625 48.710938 Z M 167.890625 110.25 " fill-opacity="1" fill-rule="nonzero"/></g><g clip-path="url(#81ffd22e96)"><path fill="#00b2bd" d="M 187.488281 137.269531 L 125.945312 137.269531 C 119.820312 137.269531 114.8125 132.261719 114.8125 126.136719 L 114.8125 94.402344 C 114.8125 88.277344 119.820312 83.265625 125.945312 83.265625 L 141.351562 83.265625 L 141.351562 90.6875 L 125.945312 90.6875 C 123.90625 90.6875 122.234375 92.359375 122.234375 94.402344 L 122.234375 126.136719 C 122.234375 128.175781 123.90625 129.847656 125.945312 129.847656 L 187.488281 129.847656 Z M 187.488281 137.269531 " fill-opacity="1" fill-rule="nonzero"/></g><g clip-path="url(#607f991119)"><path fill="#a6a6a6" d="M 249.027344 137.269531 L 233.625 137.269531 L 233.625 129.847656 L 249.027344 129.847656 C 251.070312 129.847656 252.738281 128.175781 252.738281 126.136719 L 252.738281 94.402344 C 252.738281 92.359375 251.070312 90.6875 249.027344 90.6875 L 187.488281 90.6875 L 187.488281 83.265625 L 249.027344 83.265625 C 255.152344 83.265625 260.164062 88.277344 260.164062 94.402344 L 260.164062 126.136719 C 260.164062 132.261719 255.152344 137.269531 249.027344 137.269531 Z M 249.027344 137.269531 " fill-opacity="1" fill-rule="nonzero"/></g><g fill="#00b2bd" fill-opacity="1"><g transform="translate(3.905708, 246.958985)"><g><path d="M 38.984375 -39.71875 L 38.984375 -16.453125 C 38.984375 -11.273438 37.453125 -7.191406 34.390625 -4.203125 C 31.328125 -1.210938 27.109375 0.28125 21.734375 0.28125 C 16.359375 0.28125 12.128906 -1.210938 9.046875 -4.203125 C 5.960938 -7.191406 4.421875 -11.273438 4.421875 -16.453125 L 4.421875 -39.71875 L 11.125 -39.71875 L 11.125 -16.453125 C 11.125 -13.128906 12.078125 -10.507812 13.984375 -8.59375 C 15.898438 -6.6875 18.503906 -5.734375 21.796875 -5.734375 C 25.046875 -5.734375 27.609375 -6.675781 29.484375 -8.5625 C 31.359375 -10.457031 32.296875 -13.085938 32.296875 -16.453125 L 32.296875 -39.71875 Z M 38.984375 -39.71875 "/></g></g></g><g fill="#00b2bd" fill-opacity="1"><g transform="translate(55.766308, 246.958985)"><g><path d="M 30.421875 0 L 23.15625 -12.03125 C 22.78125 -11.988281 22.175781 -11.96875 21.34375 -11.96875 L 11.921875 -11.96875 L 11.921875 0 L 5.21875 0 L 5.21875 -39.71875 L 21.34375 -39.71875 C 26.40625 -39.71875 30.335938 -38.535156 33.140625 -36.171875 C 35.941406 -33.804688 37.34375 -30.46875 37.34375 -26.15625 C 37.34375 -22.976562 36.628906 -20.289062 35.203125 -18.09375 C 33.785156 -15.90625 31.753906 -14.300781 29.109375 -13.28125 L 38.015625 0 Z M 11.921875 -17.984375 L 21.34375 -17.984375 C 27.769531 -17.984375 30.984375 -20.648438 30.984375 -25.984375 C 30.984375 -31.128906 27.769531 -33.703125 21.34375 -33.703125 L 11.921875 -33.703125 Z M 11.921875 -17.984375 "/></g></g></g><g fill="#00b2bd" fill-opacity="1"><g transform="translate(105.300723, 246.958985)"><g><path d="M 32.40625 -19.515625 L 38.25 -19.515625 L 38.25 -4.875 C 36.207031 -3.320312 33.796875 -2.070312 31.015625 -1.125 C 28.234375 -0.1875 25.5 0.28125 22.8125 0.28125 C 16.945312 0.28125 12 -1.65625 7.96875 -5.53125 C 3.9375 -9.40625 1.921875 -14.179688 1.921875 -19.859375 C 1.921875 -25.535156 3.960938 -30.289062 8.046875 -34.125 C 12.140625 -37.96875 17.191406 -39.890625 23.203125 -39.890625 C 26.003906 -39.890625 28.757812 -39.390625 31.46875 -38.390625 C 34.175781 -37.390625 36.507812 -36.035156 38.46875 -34.328125 L 34.671875 -29.390625 C 31.421875 -32.421875 27.597656 -33.9375 23.203125 -33.9375 C 19.160156 -33.9375 15.738281 -32.570312 12.9375 -29.84375 C 10.132812 -27.125 8.734375 -23.796875 8.734375 -19.859375 C 8.734375 -15.890625 10.140625 -12.539062 12.953125 -9.8125 C 15.773438 -7.09375 19.210938 -5.734375 23.265625 -5.734375 C 26.328125 -5.734375 29.375 -6.640625 32.40625 -8.453125 Z M 32.40625 -19.515625 "/></g></g></g><g fill="#00b2bd" fill-opacity="1"><g transform="translate(156.310284, 246.958985)"><g><path d="M 28.375 -44.203125 L 23.046875 -44.203125 L 19.515625 -49.203125 L 16 -44.203125 L 10.671875 -44.203125 L 16.515625 -52.203125 L 22.53125 -52.203125 Z M 33.59375 -33.703125 L 11.921875 -33.703125 L 11.921875 -22.984375 L 31.328125 -22.984375 L 31.328125 -16.96875 L 11.921875 -16.96875 L 11.921875 -6.015625 L 34.28125 -6.015625 L 34.28125 0 L 5.21875 0 L 5.21875 -39.71875 L 33.59375 -39.71875 Z M 33.59375 -33.703125 "/></g></g></g><g fill="#00b2bd" fill-opacity="1"><g transform="translate(202.043346, 246.958985)"><g><path d="M 39.671875 0 L 33.078125 0 L 11.921875 -28.484375 L 11.921875 0 L 5.21875 0 L 5.21875 -39.71875 L 11.796875 -39.71875 L 33.078125 -11.1875 L 33.078125 -39.71875 L 39.671875 -39.71875 Z M 39.671875 0 "/></g></g></g><g fill="#00b2bd" fill-opacity="1"><g transform="translate(255.492581, 246.958985)"><g><path d="M 22.8125 -39.890625 C 25.613281 -39.890625 28.347656 -39.347656 31.015625 -38.265625 C 33.679688 -37.191406 35.976562 -35.691406 37.90625 -33.765625 L 34 -28.890625 C 32.5625 -30.441406 30.859375 -31.671875 28.890625 -32.578125 C 26.921875 -33.484375 24.929688 -33.9375 22.921875 -33.9375 C 18.953125 -33.9375 15.59375 -32.582031 12.84375 -29.875 C 10.101562 -27.175781 8.734375 -23.875 8.734375 -19.96875 C 8.734375 -16.039062 10.101562 -12.722656 12.84375 -10.015625 C 15.59375 -7.304688 18.953125 -5.953125 22.921875 -5.953125 C 27.046875 -5.953125 30.738281 -7.523438 34 -10.671875 L 37.96875 -6.25 C 35.925781 -4.238281 33.539062 -2.644531 30.8125 -1.46875 C 28.09375 -0.300781 25.351562 0.28125 22.59375 0.28125 C 16.757812 0.28125 11.851562 -1.65625 7.875 -5.53125 C 3.90625 -9.40625 1.921875 -14.203125 1.921875 -19.921875 C 1.921875 -25.554688 3.9375 -30.289062 7.96875 -34.125 C 12 -37.96875 16.945312 -39.890625 22.8125 -39.890625 Z M 22.8125 -39.890625 "/></g></g></g><g fill="#00b2bd" fill-opacity="1"><g transform="translate(303.551862, 246.958985)"><g><path d="M 11.921875 0 L 5.21875 0 L 5.21875 -39.71875 L 11.921875 -39.71875 Z M 11.921875 0 "/></g></g></g><g fill="#00b2bd" fill-opacity="1"><g transform="translate(329.200219, 246.958985)"><g><path d="M 30.875 -8.96875 L 10.84375 -8.96875 L 7.03125 0 L 0.0625 0 L 17.59375 -39.71875 L 24.453125 -39.71875 L 41.828125 0 L 34.671875 0 Z M 28.3125 -14.921875 L 20.828125 -32.578125 L 13.34375 -14.921875 Z M 28.3125 -14.921875 "/></g></g></g><g fill="#a6a6a6" fill-opacity="1"><g transform="translate(135.958586, 287.154761)"><g><path d="M 2.828125 -12.0625 C 4.253906 -13.425781 6.019531 -14.109375 8.125 -14.109375 C 10.226562 -14.109375 11.992188 -13.425781 13.421875 -12.0625 C 14.847656 -10.707031 15.5625 -9.023438 15.5625 -7.015625 C 15.5625 -5.015625 14.847656 -3.328125 13.421875 -1.953125 C 11.992188 -0.585938 10.226562 0.09375 8.125 0.09375 C 6.019531 0.09375 4.253906 -0.585938 2.828125 -1.953125 C 1.398438 -3.328125 0.6875 -5.015625 0.6875 -7.015625 C 0.6875 -9.023438 1.398438 -10.707031 2.828125 -12.0625 Z M 8.140625 -11.984375 C 6.753906 -11.984375 5.566406 -11.503906 4.578125 -10.546875 C 3.585938 -9.585938 3.09375 -8.410156 3.09375 -7.015625 C 3.09375 -5.628906 3.585938 -4.453125 4.578125 -3.484375 C 5.578125 -2.515625 6.765625 -2.03125 8.140625 -2.03125 C 9.523438 -2.03125 10.703125 -2.515625 11.671875 -3.484375 C 12.648438 -4.453125 13.140625 -5.628906 13.140625 -7.015625 C 13.140625 -8.410156 12.648438 -9.585938 11.671875 -10.546875 C 10.703125 -11.503906 9.523438 -11.984375 8.140625 -11.984375 Z M 8.140625 -11.984375 "/></g></g></g><g fill="#a6a6a6" fill-opacity="1"><g transform="translate(157.229119, 287.154761)"><g><path d="M 14.03125 0 L 11.703125 0 L 4.21875 -10.078125 L 4.21875 0 L 1.84375 0 L 1.84375 -14.046875 L 4.171875 -14.046875 L 11.703125 -3.953125 L 11.703125 -14.046875 L 14.03125 -14.046875 Z M 14.03125 0 "/></g></g></g><g fill="#a6a6a6" fill-opacity="1"><g transform="translate(178.138475, 287.154761)"><g><path d="M 4.21875 -2.140625 L 10.296875 -2.140625 L 10.296875 0 L 1.84375 0 L 1.84375 -14.046875 L 4.21875 -14.046875 Z M 4.21875 -2.140625 "/></g></g></g><g fill="#a6a6a6" fill-opacity="1"><g transform="translate(193.871143, 287.154761)"><g><path d="M 4.21875 0 L 1.84375 0 L 1.84375 -14.046875 L 4.21875 -14.046875 Z M 4.21875 0 "/></g></g></g><g fill="#a6a6a6" fill-opacity="1"><g transform="translate(204.948821, 287.154761)"><g><path d="M 14.03125 0 L 11.703125 0 L 4.21875 -10.078125 L 4.21875 0 L 1.84375 0 L 1.84375 -14.046875 L 4.171875 -14.046875 L 11.703125 -3.953125 L 11.703125 -14.046875 L 14.03125 -14.046875 Z M 14.03125 0 "/></g></g></g><g fill="#a6a6a6" fill-opacity="1"><g transform="translate(225.858178, 287.154761)"><g><path d="M 11.875 -11.921875 L 4.21875 -11.921875 L 4.21875 -8.125 L 11.078125 -8.125 L 11.078125 -6 L 4.21875 -6 L 4.21875 -2.125 L 12.125 -2.125 L 12.125 0 L 1.84375 0 L 1.84375 -14.046875 L 11.875 -14.046875 Z M 11.875 -11.921875 "/></g></g></g></svg>